# xmcd CD database file
#
# Track frame offsets:
#	150
#	25680
#	43934
#	61940
#	82036
#	101891
#	128734
#	147173
#	164409
#	190546
#	207014
#	224652
#	243686
#
# Disc length: 3754 seconds
#
# Revision: 20
# Processed by: cddbd v1.5.2PL0 Copyright (c) Steve Scherf et al.
# Submitted via: CDex 1.51
#
DISCID=be0ea80d
DTITLE=JAMIROQUAI - JAMIROQUAI   TRAVELLING WITHOUT MOVING
DYEAR=1996
DGENRE=Jazz
TTITLE0=VIRTUAL INSANITY
TTITLE1=COSMIC GIRL
TTITLE2=USE THE FORCE
TTITLE3=EVERYDAY
TTITLE4=ALRIGHT
TTITLE5=HIGH TIMES
TTITLE6=DRIFTING ALONG
TTITLE7=DIDJERAMA
TTITLE8=DIDJITAL VIBRATIONS
TTITLE9=TRAVELLING WITHOUT MOVING
TTITLE10=YOU ARE MY LOVE
TTITLE11=SPEND A LIFETIME
TTITLE12=FUNKTION (Ruff Mix)
EXTD=YEAR: 1996
EXTT0=
EXTT1=
EXTT2=
EXTT3=
EXTT4=
EXTT5=
EXTT6=
EXTT7=
EXTT8=
EXTT9=
EXTT10=
EXTT11=
EXTT12=
PLAYORDER=
